<?xml version="1.0" encoding="utf-8"?>
<!-- Generator: Adobe Illustrator 24.0.2, SVG Export Plug-In . SVG Version: 6.00 Build 0)  -->
<svg version="1.1" id="Layer_1" xmlns="http://www.w3.org/2000/svg" xmlns:xlink="http://www.w3.org/1999/xlink" x="0px" y="0px"
	 viewBox="0 0 500 500" style="enable-background:new 0 0 500 500;" xml:space="preserve">
<style type="text/css">
	.st0{fill:#FFFFFF;}
	.st1{fill:none;stroke:#FFFFFF;stroke-width:13;stroke-miterlimit:10;}
	.st2{fill:#4285F4;stroke:#FFFFFF;stroke-width:13;stroke-miterlimit:10;}
	.st3{fill:#4285F4;stroke:#FFFFFF;stroke-width:13;stroke-linecap:round;stroke-miterlimit:10;}
	.st4{fill:none;stroke:#FFFFFF;stroke-width:13;stroke-linecap:round;stroke-miterlimit:10;}
	.st5{fill:#34A853;stroke:#FFFFFF;stroke-width:13;stroke-miterlimit:10;}
	.st6{fill:#34A853;stroke:#FFFFFF;stroke-width:13;stroke-linecap:round;stroke-miterlimit:10;}
	.st7{fill:#BB001B;stroke:#FFFFFF;stroke-width:13;stroke-miterlimit:10;}
	.st8{fill:#BB001B;stroke:#FFFFFF;stroke-width:13;stroke-linecap:round;stroke-miterlimit:10;}
	.st9{fill:#FBBC05;stroke:#FFFFFF;stroke-width:13;stroke-miterlimit:10;}
	.st10{fill:#FBBC05;stroke:#FFFFFF;stroke-width:13;stroke-linecap:round;stroke-miterlimit:10;}
</style>
<rect y="0" class="st0" width="500" height="500"/>
<g>
	<line class="st1" x1="186.48" y1="114.84" x2="213.05" y2="141.41"/>
	<line class="st1" x1="213.15" y1="141.5" x2="213.81" y2="142.17"/>
	<line class="st1" x1="217.82" y1="190.21" x2="244.38" y2="216.77"/>
	<line class="st1" x1="244.28" y1="216.67" x2="245.17" y2="217.56"/>
	<polyline class="st2" points="245.17,217.56 244.28,216.67 230.71,203.11 229.82,202.22 	"/>
	<polyline class="st2" points="226.71,243.14 225.82,242.25 208.7,225.12 207.81,224.23 	"/>
	<line class="st1" x1="199.2" y1="215.64" x2="225.75" y2="242.22"/>
	<polyline class="st2" points="181.57,242.03 178.01,238.47 177.12,237.58 	"/>
	<line class="st1" x1="225.82" y1="242.25" x2="226.71" y2="243.14"/>
	<polyline class="st2" points="181.57,242.03 178.01,238.47 177.12,237.58 165.55,226.01 164.66,225.12 	"/>
	<path class="st2" d="M160.44,264.93l-61.16-61.16c-1.78-1.78-3.78-4.23-5.78-6.67c-6.01-7.34-12.68-17.57-17.57-30.47
		c-1.34-3.11-2.45-6.45-4-9.79c-0.22-0.67-0.45-1.34-0.67-2c-1.33-4.01-2.45-7.79-2.89-10.9l73.61-73.61l14.68,14.68
		c7.78-0.67,10.45-2.89,21.13-4.67c8.9-1.34,21.13,4.23,30.69,12.45l26.69,26.69c6.01,6.01,6,15.79,0,21.79
		c-6.01,6.01-15.12,6.23-21.35,0.89l53.37,53.37c5.11,6.01,4.89,15.12-0.89,20.91c-6,6-15.12,6.23-21.13,1.11l12.23,12.23
		c5.12,6,4.89,15.12-0.89,20.9c-6,6-15.12,6.23-21.13,1.11l-8.67-8.67c5.12,6,4.89,15.12-0.89,20.9
		c-6.01,6.01-15.12,6.23-21.13,1.11L181.56,242c6.01,6.01,6.01,15.79,0,21.8C175.56,269.83,166.44,270.05,160.44,264.93z"/>
	<polyline class="st2" points="186.46,114.82 187.35,115.71 213.15,141.5 213.81,142.17 	"/>
	<line class="st1" x1="217.82" y1="190.21" x2="191.14" y2="163.53"/>
	<line class="st1" x1="199.2" y1="215.64" x2="174.44" y2="190.91"/>
	<line class="st1" x1="164.73" y1="225.21" x2="146.97" y2="207.48"/>
	<line class="st1" x1="187.35" y1="115.71" x2="213.91" y2="142.27"/>
	<path class="st2" d="M213.91,142.27"/>
	<path class="st2" d="M235.93,120.26"/>
	<line class="st1" x1="218.68" y1="191.08" x2="245.25" y2="217.64"/>
	<path class="st2" d="M245.25,217.64"/>
	<path class="st2" d="M267.26,195.62"/>
	<polyline class="st2" points="245.17,217.56 244.28,216.67 230.71,203.11 	"/>
	<polyline class="st2" points="226.71,243.14 225.82,242.25 208.7,225.12 	"/>
	<path class="st2" d="M235.34,251.76"/>
	<path class="st2" d="M257.35,229.75"/>
	<line class="st1" x1="200.06" y1="216.51" x2="226.61" y2="243.08"/>
	<line class="st1" x1="178.01" y1="238.47" x2="181.57" y2="242.03"/>
	<path class="st2" d="M204.59,265.09"/>
	<path class="st2" d="M226.61,243.08"/>
	<polyline class="st2" points="181.57,242.03 178.01,238.47 177.12,237.58 165.55,226.01 	"/>
	<polyline class="st3" points="187.35,115.71 213.15,141.5 213.81,142.17 	"/>
	<line class="st4" x1="218.68" y1="191.08" x2="192.01" y2="164.4"/>
	<line class="st4" x1="200.06" y1="216.51" x2="175.31" y2="191.78"/>
	<line class="st4" x1="165.6" y1="226.08" x2="147.84" y2="208.34"/>
	<path class="st2" d="M68.26,144.01"/>
	<path class="st2" d="M141.95,70.31"/>
</g>
<g>
	<line class="st1" x1="385.16" y1="186.48" x2="358.59" y2="213.05"/>
	<line class="st1" x1="358.5" y1="213.15" x2="357.83" y2="213.81"/>
	<line class="st1" x1="309.79" y1="217.82" x2="283.23" y2="244.38"/>
	<line class="st1" x1="283.33" y1="244.28" x2="282.44" y2="245.17"/>
	<polyline class="st5" points="282.44,245.17 283.33,244.28 296.89,230.71 297.78,229.82 	"/>
	<polyline class="st5" points="256.86,226.71 257.75,225.82 274.88,208.7 275.77,207.81 	"/>
	<line class="st1" x1="284.36" y1="199.2" x2="257.78" y2="225.75"/>
	<polyline class="st5" points="257.97,181.57 261.53,178.01 262.42,177.12 	"/>
	<line class="st1" x1="257.75" y1="225.82" x2="256.86" y2="226.71"/>
	<polyline class="st5" points="257.97,181.57 261.53,178.01 262.42,177.12 273.99,165.55 274.88,164.66 	"/>
	<path class="st5" d="M235.07,160.44l61.16-61.16c1.78-1.78,4.23-3.78,6.67-5.78c7.34-6.01,17.57-12.68,30.47-17.57
		c3.11-1.34,6.45-2.45,9.79-4c0.67-0.22,1.34-0.45,2-0.67c4.01-1.33,7.79-2.45,10.9-2.89l73.61,73.61l-14.68,14.68
		c0.67,7.78,2.89,10.45,4.67,21.13c1.34,8.9-4.23,21.13-12.45,30.69l-26.69,26.69c-6.01,6.01-15.79,6-21.79,0
		c-6.01-6.01-6.23-15.12-0.89-21.35l-53.37,53.37c-6.01,5.11-15.12,4.89-20.91-0.89c-6-6-6.23-15.12-1.11-21.13L270.2,257.4
		c-6,5.12-15.12,4.89-20.9-0.89c-6-6-6.23-15.12-1.11-21.13l8.67-8.67c-6,5.12-15.12,4.89-20.9-0.89
		c-6.01-6.01-6.23-15.12-1.11-21.13l23.13-23.13c-6.01,6.01-15.79,6.01-21.8,0C230.17,175.56,229.95,166.44,235.07,160.44z"/>
	<polyline class="st5" points="385.18,186.46 384.29,187.35 358.5,213.15 357.83,213.81 	"/>
	<line class="st1" x1="309.79" y1="217.82" x2="336.47" y2="191.14"/>
	<line class="st1" x1="284.36" y1="199.2" x2="309.09" y2="174.44"/>
	<line class="st1" x1="274.79" y1="164.73" x2="292.52" y2="146.97"/>
	<line class="st1" x1="384.29" y1="187.35" x2="357.73" y2="213.91"/>
	<path class="st5" d="M357.73,213.91"/>
	<path class="st5" d="M379.74,235.93"/>
	<line class="st1" x1="308.92" y1="218.68" x2="282.36" y2="245.25"/>
	<path class="st5" d="M282.36,245.25"/>
	<path class="st5" d="M304.38,267.26"/>
	<polyline class="st5" points="282.44,245.17 283.33,244.28 296.89,230.71 	"/>
	<polyline class="st5" points="256.86,226.71 257.75,225.82 274.88,208.7 	"/>
	<path class="st5" d="M248.24,235.34"/>
	<path class="st5" d="M270.25,257.35"/>
	<line class="st1" x1="283.49" y1="200.06" x2="256.92" y2="226.61"/>
	<line class="st1" x1="261.53" y1="178.01" x2="257.97" y2="181.57"/>
	<path class="st5" d="M234.91,204.59"/>
	<path class="st5" d="M256.92,226.61"/>
	<polyline class="st5" points="257.97,181.57 261.53,178.01 262.42,177.12 273.99,165.55 	"/>
	<polyline class="st6" points="384.29,187.35 358.5,213.15 357.83,213.81 	"/>
	<line class="st4" x1="308.92" y1="218.68" x2="335.6" y2="192.01"/>
	<line class="st4" x1="283.49" y1="200.06" x2="308.22" y2="175.31"/>
	<line class="st4" x1="273.92" y1="165.6" x2="291.66" y2="147.84"/>
	<path class="st5" d="M355.99,68.26"/>
	<path class="st5" d="M429.69,141.95"/>
</g>
<g>
	<line class="st1" x1="114.84" y1="313.52" x2="141.41" y2="286.95"/>
	<line class="st1" x1="141.5" y1="286.85" x2="142.17" y2="286.19"/>
	<line class="st1" x1="190.21" y1="282.18" x2="216.77" y2="255.62"/>
	<line class="st1" x1="216.67" y1="255.72" x2="217.56" y2="254.83"/>
	<polyline class="st7" points="217.56,254.83 216.67,255.72 203.11,269.29 202.22,270.18 	"/>
	<polyline class="st7" points="243.14,273.29 242.25,274.18 225.12,291.3 224.23,292.19 	"/>
	<line class="st1" x1="215.64" y1="300.8" x2="242.22" y2="274.25"/>
	<polyline class="st7" points="242.03,318.43 238.47,321.99 237.58,322.88 	"/>
	<line class="st1" x1="242.25" y1="274.18" x2="243.14" y2="273.29"/>
	<polyline class="st7" points="242.03,318.43 238.47,321.99 237.58,322.88 226.01,334.45 225.12,335.34 	"/>
	<path class="st7" d="M264.93,339.56l-61.16,61.16c-1.78,1.78-4.23,3.78-6.67,5.78c-7.34,6.01-17.57,12.68-30.47,17.57
		c-3.11,1.34-6.45,2.45-9.79,4c-0.67,0.22-1.34,0.45-2,0.67c-4.01,1.33-7.79,2.45-10.9,2.89l-73.61-73.61l14.68-14.68
		c-0.67-7.78-2.89-10.45-4.67-21.13c-1.34-8.9,4.23-21.13,12.45-30.69l26.69-26.69c6.01-6.01,15.79-6,21.79,0
		c6.01,6.01,6.23,15.12,0.89,21.35l53.37-53.37c6.01-5.11,15.12-4.89,20.91,0.89c6,6,6.23,15.12,1.11,21.13l12.23-12.23
		c6-5.12,15.12-4.89,20.9,0.89c6,6,6.23,15.12,1.11,21.13l-8.67,8.67c6-5.12,15.12-4.89,20.9,0.89c6.01,6.01,6.23,15.12,1.11,21.13
		L242,318.44c6.01-6.01,15.79-6.01,21.8,0S270.05,333.56,264.93,339.56z"/>
	<polyline class="st7" points="114.82,313.54 115.71,312.65 141.5,286.85 142.17,286.19 	"/>
	<line class="st1" x1="190.21" y1="282.18" x2="163.53" y2="308.86"/>
	<line class="st1" x1="215.64" y1="300.8" x2="190.91" y2="325.56"/>
	<line class="st1" x1="225.21" y1="335.27" x2="207.48" y2="353.03"/>
	<line class="st1" x1="115.71" y1="312.65" x2="142.27" y2="286.09"/>
	<path class="st7" d="M142.27,286.09"/>
	<path class="st7" d="M120.26,264.07"/>
	<line class="st1" x1="191.08" y1="281.32" x2="217.64" y2="254.75"/>
	<path class="st7" d="M217.64,254.75"/>
	<path class="st7" d="M195.62,232.74"/>
	<polyline class="st7" points="217.56,254.83 216.67,255.72 203.11,269.29 	"/>
	<polyline class="st7" points="243.14,273.29 242.25,274.18 225.12,291.3 	"/>
	<path class="st7" d="M251.76,264.66"/>
	<path class="st7" d="M229.75,242.65"/>
	<line class="st1" x1="216.51" y1="299.94" x2="243.08" y2="273.39"/>
	<line class="st1" x1="238.47" y1="321.99" x2="242.03" y2="318.43"/>
	<path class="st7" d="M265.09,295.41"/>
	<path class="st7" d="M243.08,273.39"/>
	<polyline class="st7" points="242.03,318.43 238.47,321.99 237.58,322.88 226.01,334.45 	"/>
	<polyline class="st8" points="115.71,312.65 141.5,286.85 142.17,286.19 	"/>
	<line class="st4" x1="191.08" y1="281.32" x2="164.4" y2="307.99"/>
	<line class="st4" x1="216.51" y1="299.94" x2="191.78" y2="324.69"/>
	<line class="st4" x1="226.08" y1="334.4" x2="208.34" y2="352.16"/>
	<path class="st7" d="M144.01,431.74"/>
	<path class="st7" d="M70.31,358.05"/>
</g>
<g>
	<line class="st1" x1="313.52" y1="385.16" x2="286.95" y2="358.59"/>
	<line class="st1" x1="286.85" y1="358.5" x2="286.19" y2="357.83"/>
	<line class="st1" x1="282.18" y1="309.79" x2="255.62" y2="283.23"/>
	<line class="st1" x1="255.72" y1="283.33" x2="254.83" y2="282.44"/>
	<polyline class="st9" points="254.83,282.44 255.72,283.33 269.29,296.89 270.18,297.78 	"/>
	<polyline class="st9" points="273.29,256.86 274.18,257.75 291.3,274.88 292.19,275.77 	"/>
	<line class="st1" x1="300.8" y1="284.36" x2="274.25" y2="257.78"/>
	<polyline class="st9" points="318.43,257.97 321.99,261.53 322.88,262.42 	"/>
	<line class="st1" x1="274.18" y1="257.75" x2="273.29" y2="256.86"/>
	<polyline class="st9" points="318.43,257.97 321.99,261.53 322.88,262.42 334.45,273.99 335.34,274.88 	"/>
	<path class="st9" d="M339.56,235.07l61.16,61.16c1.78,1.78,3.78,4.23,5.78,6.67c6.01,7.34,12.68,17.57,17.57,30.47
		c1.34,3.11,2.45,6.45,4,9.79c0.22,0.67,0.45,1.34,0.67,2c1.33,4.01,2.45,7.79,2.89,10.9l-73.61,73.61l-14.68-14.68
		c-7.78,0.67-10.45,2.89-21.13,4.67c-8.9,1.34-21.13-4.23-30.69-12.45l-26.69-26.69c-6.01-6.01-6-15.79,0-21.79
		c6.01-6.01,15.12-6.23,21.35-0.89l-53.37-53.37c-5.11-6.01-4.89-15.12,0.89-20.91c6-6,15.12-6.23,21.13-1.11L242.6,270.2
		c-5.12-6-4.89-15.12,0.89-20.9c6-6,15.12-6.23,21.13-1.11l8.67,8.67c-5.12-6-4.89-15.12,0.89-20.9c6.01-6.01,15.12-6.23,21.13-1.11
		l23.13,23.13c-6.01-6.01-6.01-15.79,0-21.8C324.44,230.17,333.56,229.95,339.56,235.07z"/>
	<polyline class="st9" points="313.54,385.18 312.65,384.29 286.85,358.5 286.19,357.83 	"/>
	<line class="st1" x1="282.18" y1="309.79" x2="308.86" y2="336.47"/>
	<line class="st1" x1="300.8" y1="284.36" x2="325.56" y2="309.09"/>
	<line class="st1" x1="335.27" y1="274.79" x2="353.03" y2="292.52"/>
	<line class="st1" x1="312.65" y1="384.29" x2="286.09" y2="357.73"/>
	<path class="st9" d="M286.09,357.73"/>
	<path class="st9" d="M264.07,379.74"/>
	<line class="st1" x1="281.32" y1="308.92" x2="254.75" y2="282.36"/>
	<path class="st9" d="M254.75,282.36"/>
	<path class="st9" d="M232.74,304.38"/>
	<polyline class="st9" points="254.83,282.44 255.72,283.33 269.29,296.89 	"/>
	<polyline class="st9" points="273.29,256.86 274.18,257.75 291.3,274.88 	"/>
	<path class="st9" d="M264.66,248.24"/>
	<path class="st9" d="M242.65,270.25"/>
	<line class="st1" x1="299.94" y1="283.49" x2="273.39" y2="256.92"/>
	<line class="st1" x1="321.99" y1="261.53" x2="318.43" y2="257.97"/>
	<path class="st9" d="M295.41,234.91"/>
	<path class="st9" d="M273.39,256.92"/>
	<polyline class="st9" points="318.43,257.97 321.99,261.53 322.88,262.42 334.45,273.99 	"/>
	<polyline class="st10" points="312.65,384.29 286.85,358.5 286.19,357.83 	"/>
	<line class="st4" x1="281.32" y1="308.92" x2="307.99" y2="335.6"/>
	<line class="st4" x1="299.94" y1="283.49" x2="324.69" y2="308.22"/>
	<line class="st4" x1="334.4" y1="273.92" x2="352.16" y2="291.66"/>
	<path class="st9" d="M431.74,355.99"/>
	<path class="st9" d="M358.05,429.69"/>
</g>
</svg>
